<svg xmlns="http://www.w3.org/2000/svg" viewBox="0 0 560 220" width="560" height="220" font-family="Georgia, serif">
  <rect width="560" height="220" fill="#f8f9fa" rx="10"/>
  <rect x="40" y="70" width="480" height="80" rx="6" fill="#e8edf5" stroke="#4a6fa5" stroke-width="2"/>
  <text x="280" y="24" text-anchor="middle" font-size="14" font-weight="bold" fill="#1a2d5a">Drift Velocity of Free Electrons in a Conductor</text>
  <circle cx="90"  cy="110" r="12" fill="#e05252" stroke="#b33030" stroke-width="1.2"/>
  <circle cx="170" cy="92"  r="12" fill="#e05252" stroke="#b33030" stroke-width="1.2"/>
  <circle cx="250" cy="128" r="12" fill="#e05252" stroke="#b33030" stroke-width="1.2"/>
  <circle cx="320" cy="95"  r="12" fill="#e05252" stroke="#b33030" stroke-width="1.2"/>
  <circle cx="390" cy="122" r="12" fill="#e05252" stroke="#b33030" stroke-width="1.2"/>
  <circle cx="460" cy="90"  r="12" fill="#e05252" stroke="#b33030" stroke-width="1.2"/>
  <text x="90"  y="115" text-anchor="middle" font-size="15" fill="white" font-weight="bold">-</text>
  <text x="170" y="97"  text-anchor="middle" font-size="15" fill="white" font-weight="bold">-</text>
  <text x="250" y="133" text-anchor="middle" font-size="15" fill="white" font-weight="bold">-</text>
  <text x="320" y="100" text-anchor="middle" font-size="15" fill="white" font-weight="bold">-</text>
  <text x="390" y="127" text-anchor="middle" font-size="15" fill="white" font-weight="bold">-</text>
  <text x="460" y="95"  text-anchor="middle" font-size="15" fill="white" font-weight="bold">-</text>
  <line x1="75"  y1="110" x2="52"  y2="110" stroke="#c0392b" stroke-width="1.8" marker-end="url(#arr)"/>
  <line x1="155" y1="92"  x2="132" y2="92"  stroke="#c0392b" stroke-width="1.8" marker-end="url(#arr)"/>
  <line x1="235" y1="128" x2="212" y2="128" stroke="#c0392b" stroke-width="1.8" marker-end="url(#arr)"/>
  <line x1="305" y1="95"  x2="282" y2="95"  stroke="#c0392b" stroke-width="1.8" marker-end="url(#arr)"/>
  <line x1="375" y1="122" x2="352" y2="122" stroke="#c0392b" stroke-width="1.8" marker-end="url(#arr)"/>
  <line x1="445" y1="90"  x2="422" y2="90"  stroke="#c0392b" stroke-width="1.8" marker-end="url(#arr)"/>
  <defs><marker id="arr" markerWidth="6" markerHeight="6" refX="3" refY="3" orient="auto"><path d="M6,0 L0,3 L6,6 Z" fill="#c0392b"/></marker></defs>
  <line x1="60" y1="185" x2="500" y2="185" stroke="#4a6fa5" stroke-width="2" marker-end="url(#earr)"/>
  <defs><marker id="earr" markerWidth="8" markerHeight="8" refX="4" refY="4" orient="auto"><path d="M0,0 L8,4 L0,8 Z" fill="#4a6fa5"/></marker></defs>
  <text x="280" y="205" text-anchor="middle" font-size="13" fill="#4a6fa5">Electric field E (right) — electrons drift left (v_d)</text>
  <text x="42"  y="118" font-size="11" fill="#4a6fa5">+</text>
  <text x="516" y="118" font-size="11" fill="#4a6fa5">-</text>
</svg>
