<svg xmlns="http://www.w3.org/2000/svg" viewBox="0 0 560 300" width="560" height="300" font-family="Arial, sans-serif">
  <rect width="560" height="300" fill="#f8f9fa" rx="10"/>
  <text x="280" y="26" text-anchor="middle" font-size="15" font-weight="bold" fill="#1a2d5a">Isolated Spherical Conductor: C = 4&#960;&#949;&#8320;R</text>
  <circle cx="150" cy="170" r="55" fill="#fde2e2" stroke="#e05252" stroke-width="2.5"/>
  <text x="150" y="175" text-anchor="middle" font-size="13" font-weight="bold" fill="#e05252">+Q</text>
  <line x1="150" y1="170" x2="205" y2="170" stroke="#555" stroke-width="1.5"/>
  <text x="178" y="163" text-anchor="middle" font-size="12" fill="#555">R</text>
  <defs><marker id="as" markerWidth="9" markerHeight="9" refX="7" refY="3" orient="auto"><path d="M0,0 L7,3 L0,6 Z" fill="#7a5cc4"/></marker></defs>
  <line x1="150" y1="115" x2="150" y2="78"  stroke="#7a5cc4" stroke-width="2" marker-end="url(#as)"/>
  <line x1="205" y1="170" x2="248" y2="170" stroke="#7a5cc4" stroke-width="2" marker-end="url(#as)"/>
  <line x1="150" y1="225" x2="150" y2="262" stroke="#7a5cc4" stroke-width="2" marker-end="url(#as)"/>
  <line x1="111" y1="131" x2="83"  y2="103" stroke="#7a5cc4" stroke-width="2" marker-end="url(#as)"/>
  <line x1="189" y1="131" x2="217" y2="103" stroke="#7a5cc4" stroke-width="2" marker-end="url(#as)"/>
  <line x1="111" y1="209" x2="83"  y2="237" stroke="#7a5cc4" stroke-width="2" marker-end="url(#as)"/>
  <line x1="189" y1="209" x2="217" y2="237" stroke="#7a5cc4" stroke-width="2" marker-end="url(#as)"/>
  <line x1="320" y1="250" x2="530" y2="250" stroke="#333" stroke-width="1.5"/>
  <line x1="320" y1="250" x2="320" y2="70"  stroke="#333" stroke-width="1.5"/>
  <text x="534" y="254" font-size="12" fill="#555">r</text>
  <text x="312" y="68" text-anchor="end" font-size="12" fill="#555">V</text>
  <line x1="320" y1="95" x2="380" y2="95" stroke="#e05252" stroke-width="2.5"/>
  <path d="M380,95 Q430,150 530,215" fill="none" stroke="#e05252" stroke-width="2.5"/>
  <line x1="380" y1="95" x2="380" y2="250" stroke="#aaa" stroke-width="1" stroke-dasharray="4,3"/>
  <text x="380" y="265" text-anchor="middle" font-size="11" fill="#777">R</text>
  <text x="352" y="88" font-size="10" fill="#e05252">V=kQ/R (inside)</text>
  <text x="455" y="150" font-size="10" fill="#e05252">V&#8733;1/r</text>
</svg>
